<svg xmlns="http://www.w3.org/2000/svg" width="28" height="28" viewBox="0 0 24 24">
  <g fill="none" stroke-linecap="round" stroke-linejoin="round">
    <path
      stroke="#0d1a26"
      stroke-width="3.5"
      d="M3 10a2 2 0 0 1 .709-1.528l7-6a2 2 0 0 1 2.582 0l7 6A2 2 0 0 1 21 10v9a2 2 0 0 1-2 2H5a2 2 0 0 1-2-2z"
    />
    <path
      stroke="#0d1a26"
      stroke-width="3.5"
      d="M15 21v-8a1 1 0 0 0-1-1h-4a1 1 0 0 0-1 1v8"
    />
    <path
      stroke="#ffffff"
      stroke-width="1.8"
      d="M3 10a2 2 0 0 1 .709-1.528l7-6a2 2 0 0 1 2.582 0l7 6A2 2 0 0 1 21 10v9a2 2 0 0 1-2 2H5a2 2 0 0 1-2-2z"
    />
    <path
      stroke="#ffffff"
      stroke-width="1.8"
      d="M15 21v-8a1 1 0 0 0-1-1h-4a1 1 0 0 0-1 1v8"
    />
  </g>
</svg>
