<svg width="295" height="70" viewBox="0 0 295 70" fill="none" xmlns="http://www.w3.org/2000/svg">
<g clip-path="url(#clip0_2174_8681)">
<g filter="url(#filter0_d_2174_8681)">
<path d="M282.129 51.771V64.3351H275.374V51.771L263.508 31.6641H269.452C270.038 31.6641 270.503 31.8067 270.848 32.0919C271.208 32.3621 271.494 32.7148 271.704 33.1501L277.063 43.44C277.423 44.1305 277.746 44.776 278.031 45.3764C278.331 45.9769 278.594 46.5773 278.819 47.1777C279.029 46.5773 279.269 45.9769 279.539 45.3764C279.825 44.761 280.14 44.1155 280.485 43.44L285.799 33.1501C285.979 32.7899 286.249 32.4521 286.609 32.1369C286.97 31.8217 287.435 31.6641 288.005 31.6641H293.995L282.129 51.771Z" fill="white"/>
<path d="M256.45 51.9286L252.915 41.9315C252.705 41.4061 252.48 40.7906 252.24 40.0851C252.014 39.3796 251.797 38.6141 251.587 37.7885C251.377 38.6291 251.151 39.4096 250.911 40.1302C250.686 40.8357 250.468 41.4511 250.258 41.9765L246.746 51.9286H256.45ZM267.798 64.3351H262.552C261.967 64.3351 261.486 64.2 261.111 63.9298C260.751 63.6446 260.481 63.2843 260.3 62.849L258.094 56.612H245.079L242.873 62.849C242.723 63.2243 242.46 63.5695 242.085 63.8847C241.71 64.185 241.237 64.3351 240.666 64.3351H235.375L248.142 31.6641H255.054L267.798 64.3351Z" fill="white"/>
<path d="M237.783 31.6641L227.65 64.3351H221.548L214.861 42.9672C214.756 42.667 214.651 42.3367 214.546 41.9765C214.441 41.6162 214.343 41.2334 214.253 40.8282C214.163 41.2334 214.066 41.6162 213.961 41.9765C213.855 42.3367 213.75 42.667 213.645 42.9672L206.89 64.3351H200.766L190.656 31.6641H196.33C196.916 31.6641 197.404 31.7992 197.794 32.0694C198.199 32.3395 198.462 32.6998 198.582 33.1501L203.648 51.5684C203.768 52.0788 203.888 52.6342 204.008 53.2346C204.143 53.82 204.271 54.443 204.391 55.1034C204.526 54.4279 204.669 53.7975 204.819 53.2121C204.969 52.6266 205.134 52.0788 205.314 51.5684L211.214 33.1501C211.334 32.7749 211.589 32.4371 211.979 32.1369C212.384 31.8217 212.872 31.6641 213.443 31.6641H215.424C216.009 31.6641 216.482 31.8067 216.843 32.0919C217.218 32.3621 217.496 32.7148 217.676 33.1501L223.552 51.5684C223.733 52.0487 223.898 52.5741 224.048 53.1445C224.198 53.6999 224.34 54.2928 224.476 54.9233C224.596 54.2928 224.708 53.6999 224.813 53.1445C224.933 52.5741 225.053 52.0487 225.174 51.5684L230.24 33.1501C230.345 32.7599 230.6 32.4146 231.005 32.1144C231.411 31.8142 231.898 31.6641 232.469 31.6641H237.783Z" fill="white"/>
<path d="M174.761 36.9554V45.3539H185.659V50.4651H174.761V59.0438H188.766V64.3351H167.961V31.6641H188.766V36.9554H174.761Z" fill="white"/>
<path d="M163.902 37.113H154.355V64.3351H147.578V37.113H138.031V31.6641H163.902V37.113Z" fill="white"/>
<path d="M129.614 51.9286L126.079 41.9315C125.869 41.4061 125.644 40.7906 125.404 40.0851C125.179 39.3796 124.961 38.6141 124.751 37.7885C124.541 38.6291 124.315 39.4096 124.075 40.1302C123.85 40.8357 123.632 41.4511 123.422 41.9765L119.91 51.9286H129.614ZM140.962 64.3351H135.716C135.131 64.3351 134.65 64.2 134.275 63.9298C133.915 63.6446 133.645 63.2843 133.465 62.849L131.258 56.612H118.244L116.037 62.849C115.887 63.2243 115.624 63.5695 115.249 63.8847C114.874 64.185 114.401 64.3351 113.83 64.3351H108.539L121.306 31.6641H128.218L140.962 64.3351Z" fill="white"/>
<path d="M96.0838 47.6887H107.297V61.1759C105.631 62.3918 103.852 63.2849 101.96 63.8553C100.084 64.4107 98.0952 64.6884 95.9937 64.6884C93.3068 64.6884 90.875 64.2756 88.6984 63.45C86.5219 62.6094 84.6605 61.4461 83.1144 59.96C81.5683 58.4739 80.3749 56.7102 79.5343 54.6687C78.6937 52.6272 78.2734 50.3981 78.2734 47.9814C78.2734 45.5346 78.6712 43.2905 79.4668 41.249C80.2774 39.2076 81.4257 37.4513 82.9118 35.9802C84.3978 34.5092 86.1916 33.3609 88.2931 32.5353C90.4097 31.7097 92.7739 31.2969 95.3857 31.2969C96.7367 31.2969 97.9976 31.4095 99.1685 31.6346C100.339 31.8448 101.42 32.145 102.411 32.5353C103.402 32.9105 104.31 33.3609 105.135 33.8862C105.961 34.4116 106.711 34.9895 107.387 35.62L105.428 38.6372C105.128 39.1175 104.737 39.4102 104.257 39.5153C103.777 39.6204 103.251 39.5003 102.681 39.155C102.141 38.8248 101.608 38.5321 101.082 38.2769C100.572 38.0067 100.024 37.774 99.4387 37.5789C98.8532 37.3838 98.2153 37.2336 97.5248 37.1286C96.8343 37.0235 96.0387 36.971 95.1381 36.971C93.622 36.971 92.2485 37.2336 91.0176 37.759C89.7867 38.2844 88.736 39.0274 87.8653 39.9881C87.0097 40.9488 86.3492 42.1047 85.8839 43.4556C85.4186 44.8066 85.1859 46.3152 85.1859 47.9814C85.1859 49.7827 85.4411 51.3963 85.9515 52.8224C86.4618 54.2334 87.1823 55.4267 88.113 56.4024C89.0437 57.3781 90.1545 58.1212 91.4454 58.6315C92.7514 59.1419 94.1999 59.3971 95.791 59.3971C96.8718 59.3971 97.8325 59.292 98.6731 59.0819C99.5287 58.8567 100.362 58.5565 101.172 58.1812V52.6873H97.4798C97.0444 52.6873 96.6992 52.5747 96.444 52.3495C96.2038 52.1094 96.0838 51.8091 96.0838 51.4489V47.6887Z" fill="white"/>
<path d="M118.184 12.5544H119.39C120.324 12.5544 120.907 12.0608 120.907 11.2637C120.907 10.7321 120.635 10.276 119.74 10.276H118.69L118.184 12.5544ZM114.411 7.50391H120.985C124.057 7.50391 125.847 9.02286 125.847 11.2253C125.847 14.1873 123.28 15.4024 120.051 15.4024H117.562L116.784 19.1239H111.883L114.411 7.50391Z" fill="white"/>
<path d="M129.403 7.50391H134.383L132.515 16.048H138.35L137.183 19.1239H126.875L129.403 7.50391Z" fill="white"/>
<path d="M81.19 2.75781H93.2094L97.4104 7.61845L103.206 2.75781H115.148L102.545 13.5424L111.803 24.0991H99.861L95.5822 19.3144L90.0587 24.0991H78.0781L90.4088 13.5424L81.19 2.75781Z" fill="white"/>
<path d="M157.289 19.1239L159.817 7.50391H165.497C166.119 9.78233 166.664 12.1747 167.053 13.8459H167.17C167.209 12.9721 167.636 10.8836 168.025 8.94691L168.337 7.50391H172.732L170.204 19.1239H164.798C164.369 17.3399 163.553 13.8075 163.164 11.9472H163.086C162.969 13.3143 162.502 15.4412 162.075 17.4534L161.724 19.1239H157.289Z" fill="white"/>
<path d="M185.389 14.7586H179.749L179.477 16.0118H185.972L184.767 19.0876H173.992L176.521 7.42969H187.256L186.634 10.5056H180.682L180.41 11.7207H186.089L185.389 14.7586Z" fill="white"/>
<path d="M147.133 14.3782C147.638 13.2774 148.339 11.6445 148.728 10.5809H148.844C148.922 11.6821 149 13.4289 149.117 14.3782H147.133ZM152.695 7.54297H146.121L139.664 19.1633H144.76L145.654 17.4161H149.389L149.544 19.1633H154.484L152.695 7.54297Z" fill="white"/>
<circle cx="34.7743" cy="34.7743" r="33.7743" fill="#03729E"/>
<path d="M34.4265 4.17188C34.5319 4.17757 34.6608 4.17757 34.7662 4.17188C36.8444 4.43165 41.7413 6.50989 44.7027 12.7446C46.8928 17.3552 47.7971 21.1134 48.0934 23.3889C48.2387 24.5046 47.5687 25.5143 46.4974 25.858C44.0704 26.6365 39.9027 27.552 34.7662 27.552C34.7095 27.552 34.6529 27.5519 34.5964 27.5517C34.5399 27.5519 34.4833 27.552 34.4265 27.552C29.29 27.552 25.1224 26.6366 22.6953 25.858C21.624 25.5143 20.9541 24.5046 21.0993 23.3889C21.3956 21.1134 22.2999 17.3552 24.49 12.7446C27.4515 6.50989 32.3483 4.43165 34.4265 4.17188Z" fill="#59C4EA"/>
<path d="M34.5249 31.4486L34.5964 31.4484C34.6529 31.4486 34.7095 31.4487 34.7662 31.4487C38.967 31.4487 42.5388 30.8897 45.105 30.2738C47.0125 29.816 48.989 31.0131 49.0272 32.9745C49.0541 34.3615 49.0512 36.118 48.9898 38.2679C48.8803 42.1006 48.4438 44.8754 48.0587 46.5249C47.8377 47.4714 47.0669 48.1484 46.1116 48.3274C43.6279 48.7927 39.375 49.3735 34.7662 49.3735C34.7095 49.3735 34.6529 49.3734 34.5964 49.3732C34.5398 49.3734 34.4832 49.3735 34.4265 49.3735C29.8177 49.3735 25.5648 48.7927 23.0812 48.3274C22.1258 48.1484 21.355 47.4714 21.134 46.5249C20.7489 44.8754 20.3125 42.1006 20.203 38.2679C20.1415 36.118 20.1386 34.3615 20.1656 32.9745C20.2037 31.0131 22.1802 29.816 24.0878 30.2738C26.654 30.8897 30.2257 31.4487 34.4265 31.4487L34.5249 31.4486Z" fill="#59C4EA"/>
<path d="M34.5964 53.27C34.5398 53.2701 34.4832 53.2702 34.4265 53.2702C31.9787 53.2702 29.7383 53.1218 27.8607 52.9222C25.5648 52.6782 23.7456 54.8053 24.7913 56.8638C25.2535 57.7736 25.7996 58.7886 26.4377 59.8946C28.7757 63.9471 32.7378 65.4798 34.4265 65.7396C34.4813 65.729 34.538 65.7174 34.5964 65.7048C34.6548 65.7174 34.7114 65.729 34.7662 65.7396C36.455 65.4798 40.417 63.9471 42.7551 59.8946C43.3931 58.7886 43.9392 57.7736 44.4014 56.8638C45.4471 54.8053 43.6279 52.6782 41.332 52.9222C39.4545 53.1218 37.214 53.2702 34.7662 53.2702C34.7095 53.2702 34.6529 53.2701 34.5964 53.27Z" fill="#59C4EA"/>
<path d="M15.3328 10.9911C13.0591 12.8858 11.2941 14.7805 10.0989 16.2377C9.13086 17.4181 9.42324 19.1048 10.6662 19.9909C11.1064 20.3048 11.5695 20.627 12.0206 20.9277C12.4432 21.2094 12.9824 21.5335 13.5617 21.865C15.3524 22.8895 17.6039 21.7194 18.1037 19.7177C18.4788 18.2151 18.9802 16.5205 19.6191 14.8878C19.8687 14.2499 20.1509 13.6025 20.4519 12.9608C21.6351 10.4381 19.5383 7.93573 17.252 9.52854C16.6156 9.9719 15.9715 10.4588 15.3328 10.9911Z" fill="#59C4EA"/>
<path d="M11.4361 25.214C12.4911 25.8633 13.6272 26.4351 14.6022 26.8799C15.8229 27.4368 16.637 28.6698 16.5695 30.0099C16.4928 31.5341 16.3972 33.6813 16.3063 36.3196C16.2406 38.2248 16.3572 40.1278 16.5481 41.8183C16.81 44.1366 14.6328 46.1699 12.433 45.3928C11.9843 45.2342 11.5202 45.0671 11.0457 44.8923C8.86327 44.0882 6.89973 43.0937 5.65391 42.3922C4.97853 42.0119 4.51245 41.3552 4.38124 40.5913C4.06729 38.7636 3.71477 35.665 3.83752 32.2281C3.92815 29.6903 4.59413 27.1613 5.31447 25.1697C5.94918 23.4149 8.09469 22.9759 9.63154 24.0344C10.2028 24.4279 10.8152 24.8319 11.4361 25.214Z" fill="#59C4EA"/>
<path d="M12.4096 49.5683V49.5683C10.3024 48.8022 8.32948 50.8769 9.64147 52.695C10.6495 54.092 11.8917 55.6196 13.3837 57.1669C17.5922 61.5312 22.6709 63.5315 24.6842 63.9861C24.2945 63.8562 23.0086 62.5833 20.9823 58.5307C20.0398 56.6456 19.426 55.1091 19.0392 53.9327C18.5616 52.4806 17.3072 51.1314 15.8399 50.7029C14.9212 50.4346 13.7769 50.0655 12.4096 49.5683Z" fill="#59C4EA"/>
<path d="M53.86 10.9911C56.1336 12.8858 57.8986 14.7805 59.0938 16.2377C60.0619 17.4181 59.7695 19.1048 58.5265 19.9909C58.0863 20.3048 57.6232 20.627 57.1722 20.9277C56.7496 21.2094 56.2103 21.5335 55.631 21.865C53.8403 22.8895 51.5888 21.7194 51.0891 19.7177C50.714 18.2151 50.2125 16.5205 49.5736 14.8878C49.0032 13.4302 48.2632 11.9232 47.516 10.5475C46.6293 8.91515 48.036 7.16951 49.6516 8.0864C50.9846 8.84296 52.4355 9.80401 53.86 10.9911Z" fill="#59C4EA"/>
<path d="M57.7567 25.214C56.7016 25.8633 55.5655 26.4351 54.5905 26.8799C53.3698 27.4368 52.5557 28.6698 52.6232 30.0099C52.6999 31.5341 52.7955 33.6813 52.8865 36.3196C52.9522 38.2248 52.8356 40.1278 52.6446 41.8183C52.3828 44.1366 54.5599 46.1699 56.7597 45.3927C57.2084 45.2342 57.6725 45.0671 58.147 44.8923C60.3295 44.0882 62.293 43.0937 63.5388 42.3922C64.2142 42.0119 64.6803 41.3552 64.8115 40.5913C65.1254 38.7636 65.478 35.665 65.3552 32.2281C65.2646 29.6903 64.5986 27.1613 63.8783 25.1697C63.2436 23.4149 61.098 22.9759 59.5612 24.0344C58.9899 24.4279 58.3775 24.8319 57.7567 25.214Z" fill="#59C4EA"/>
<path d="M56.7832 49.5683V49.5683C58.8903 48.8022 60.8633 50.8769 59.5513 52.695C58.5432 54.092 57.301 55.6196 55.809 57.1669C51.6006 61.5312 46.5219 63.5315 44.5086 63.9861C44.8982 63.8562 46.1842 62.5833 48.2104 58.5307C49.153 56.6456 49.7667 55.1091 50.1536 53.9327C50.6311 52.4806 51.8855 51.1314 53.3528 50.7029C54.2716 50.4346 55.4158 50.0655 56.7832 49.5683Z" fill="#59C4EA"/>
</g>
</g>
<defs>
<filter id="filter0_d_2174_8681" x="0.7" y="1" width="295.592" height="70.8469" filterUnits="userSpaceOnUse" color-interpolation-filters="sRGB">
<feFlood flood-opacity="0" result="BackgroundImageFix"/>
<feColorMatrix in="SourceAlpha" type="matrix" values="0 0 0 0 0 0 0 0 0 0 0 0 0 0 0 0 0 0 127 0" result="hardAlpha"/>
<feOffset dx="1" dy="2"/>
<feGaussianBlur stdDeviation="0.65"/>
<feComposite in2="hardAlpha" operator="out"/>
<feColorMatrix type="matrix" values="0 0 0 0 0.137255 0 0 0 0 0.188235 0 0 0 0 0.254902 0 0 0 0.1 0"/>
<feBlend mode="normal" in2="BackgroundImageFix" result="effect1_dropShadow_2174_8681"/>
<feBlend mode="normal" in="SourceGraphic" in2="effect1_dropShadow_2174_8681" result="shape"/>
</filter>
<clipPath id="clip0_2174_8681">
<rect width="295" height="70" fill="white"/>
</clipPath>
</defs>
</svg>
